<?xml version="1.0" encoding="UTF-8" standalone="no"?>
<svg
   xmlns:dc="http://purl.org/dc/elements/1.1/"
   xmlns:cc="http://creativecommons.org/ns#"
   xmlns:rdf="http://www.w3.org/1999/02/22-rdf-syntax-ns#"
   xmlns:svg="http://www.w3.org/2000/svg"
   xmlns="http://www.w3.org/2000/svg"
   xmlns:sodipodi="http://sodipodi.sourceforge.net/DTD/sodipodi-0.dtd"
   xmlns:inkscape="http://www.inkscape.org/namespaces/inkscape"
   focusable="false"
   height="20"
   version="1.1"
   viewBox="0 0 160 20"
   width="160"
   id="svg8"
   sodipodi:docname="logo.outline.svg"
   inkscape:version="0.92.2 (5c3e80d, 2017-08-06)"
   style="shape-rendering:geometricPrecision">
  <metadata
     id="metadata14">
    <rdf:RDF>
      <cc:Work
         rdf:about="">
        <dc:format>image/svg+xml</dc:format>
        <dc:type
           rdf:resource="http://purl.org/dc/dcmitype/StillImage" />
        <dc:title>Project Logo</dc:title>
      </cc:Work>
    </rdf:RDF>
  </metadata>
  <defs
     id="defs12" />
  <sodipodi:namedview
     pagecolor="#ffffff"
     bordercolor="#666666"
     borderopacity="1"
     objecttolerance="10"
     gridtolerance="10"
     guidetolerance="10"
     inkscape:pageopacity="0"
     inkscape:pageshadow="2"
     inkscape:window-width="1920"
     inkscape:window-height="1001"
     id="namedview10"
     showgrid="false"
     inkscape:zoom="4.9171117"
     inkscape:cx="109.27937"
     inkscape:cy="22.004665"
     inkscape:window-x="-9"
     inkscape:window-y="-9"
     inkscape:window-maximized="1"
     inkscape:current-layer="svg8" />
  <title
     id="title2">Project Logo</title>
  <g
     aria-label="PROJECT LOGO"
     style="font-style:normal;font-variant:normal;font-weight:normal;font-stretch:normal;font-size:64px;line-height:1.25;font-family:'Core Sans N 45';-inkscape-font-specification:'Core Sans N 45, ';letter-spacing:0px;word-spacing:0px;fill:#333333;fill-opacity:1;stroke:none"
     id="text4512">
    <path
       id="path835"
       style="font-style:normal;font-variant:normal;font-weight:normal;font-stretch:normal;font-size:24px;font-family:'Core Sans N 55 Medium';-inkscape-font-specification:'Core Sans N 55 Medium, ';letter-spacing:-1px"
       d="m 138.91875,3.5959999 q 2.064,-2.472 5.592,-2.472 3.528,0 5.568,2.472 2.064,2.448 2.064,6.216 0,3.7680001 -2.064,6.2400001 -2.04,2.448 -5.568,2.448 -3.528,0 -5.592,-2.448 -2.04,-2.472 -2.04,-6.2400001 0,-3.768 2.04,-6.216 z m 2.112,10.7520001 q 1.272,1.656 3.48,1.656 2.208,0 3.48,-1.656 1.272,-1.656 1.272,-4.5360001 0,-2.88 -1.272,-4.536 -1.272,-1.656 -3.48,-1.656 -2.208,0 -3.48,1.656 -1.272,1.656 -1.272,4.536 0,2.8800001 1.272,4.5360001 z M 120.67562,9.8119999 q 0,-3.768 2.448,-6.216 2.448,-2.472 6.456,-2.472 2.928,0 5.208,0.96 l -0.24,2.784 q -2.256,-1.248 -4.848,-1.248 -2.784,0 -4.464,1.728 -1.68,1.704 -1.68,4.464 0,2.8320001 1.704,4.5120001 1.704,1.68 4.704,1.68 1.44,0 2.304,-0.288 v -4.584 h -4.416 V 8.6839999 h 7.248 V 17.54 q -2.328,0.96 -5.28,0.96 -4.128,0 -6.648,-2.424 -2.496,-2.424 -2.496,-6.2640001 z m -14.3975,-6.216 q 2.064,-2.472 5.592,-2.472 3.528,0 5.568,2.472 2.064,2.448 2.064,6.216 0,3.7680001 -2.064,6.2400001 -2.04,2.448 -5.568,2.448 -3.528,0 -5.592,-2.448 -2.04,-2.472 -2.04,-6.2400001 0,-3.768 2.04,-6.216 z m 2.112,10.7520001 q 1.272,1.656 3.48,1.656 2.208,0 3.48,-1.656 1.272,-1.656 1.272,-4.5360001 0,-2.88 -1.272,-4.536 -1.272,-1.656 -3.48,-1.656 -2.208,0 -3.48,1.656 -1.272,1.656 -1.272,4.536 0,2.8800001 1.272,4.5360001 z M 92.765625,18.212 V 1.4119999 h 2.832 V 15.764 h 8.567995 v 2.448 z m -9.744875,0 V 3.2839999 h -5.232 v -1.872 h 12.576 v 1.872 h -5.232 V 18.212 Z M 64.956875,9.8119999 q 0,-3.816 2.376,-6.24 2.376,-2.448 6.264,-2.448 2.208,0 3.888,0.696 l -0.192,2.112 q -1.56,-0.888 -3.576,-0.888 -3.072,0 -4.848,1.896 -1.752,1.872 -1.752,4.872 0,3.0960001 1.8,4.9440001 1.824,1.824 4.896,1.824 1.968,0 3.576,-0.936 l 0.192,2.136 q -1.608,0.72 -3.888,0.72 -3.984,0 -6.36,-2.4 -2.376,-2.4 -2.376,-6.2880001 z M 53.25,18.212 V 1.4119999 h 10.464 v 1.872 h -8.352 v 5.328 h 7.752 V 10.484 h -7.752 v 5.856 h 8.568 v 1.872 z M 48.267062,12.716 V 1.4119999 h 2.112 V 12.716 q 0,5.784 -5.016,5.784 -2.088,0 -3.504,-0.744 l 0.168,-2.088 q 1.344,0.912 3.288,0.912 2.952,0 2.952,-3.864 z M 40.136187,3.5959999 q 2.016,2.448 2.016,6.216 0,3.7680001 -2.016,6.2400001 -2.016,2.448 -5.472,2.448 -3.48,0 -5.496,-2.448 -2.016,-2.472 -2.016,-6.2400001 0,-3.768 2.016,-6.216 2.016,-2.472 5.496,-2.472 3.456,0 5.472,2.472 z m -9.384,1.272 q -1.44,1.824 -1.44,4.944 0,3.1200001 1.44,4.9440001 1.464,1.824 3.912,1.824 2.424,0 3.864,-1.824 1.464,-1.848 1.464,-4.9440001 0,-3.096 -1.464,-4.92 -1.44,-1.848 -3.864,-1.848 -2.448,0 -3.912,1.824 z m -4.838187,1.44 q 0,1.776 -1.008,2.952 Q 23.898,10.436 22.17,10.916 l 4.776,7.296 h -2.424 l -4.536,-7.008 h -3.624 v 7.008 H 14.25 V 1.4119999 h 5.592 q 2.664,0 4.368,1.296 1.704,1.272 1.704,3.6 z m -6.216,3.024 q 4.056,0 4.056,-3.024 0,-3.024 -4.056,-3.024 h -3.336 v 6.048 z m -8.93,-6.528 q 1.704,1.368 1.704,3.84 0,2.472 -1.704,3.8640001 -1.704,1.368 -4.56,1.368 H 3.112 v 6.336 H 0.99999998 V 1.4119999 H 6.208 q 2.856,0 4.56,1.392 z m -1.512,6.384 q 1.056,-0.816 1.056,-2.544 0,-1.728 -1.056,-2.544 -1.056,-0.816 -3.216,-0.816 H 3.112 V 10.004 H 6.04 q 2.16,0 3.216,-0.8160001 z" />
  </g>
</svg>
